<svg width="128" height="120" viewBox="0 0 128 120" fill="none" xmlns="http://www.w3.org/2000/svg">
<path d="M43.7775 35.0487H58.7613C63.8064 35.0487 68.1955 36.0073 71.9288 37.9244C75.7631 39.8415 78.7396 42.6667 80.8586 46.4001C82.9778 50.1334 84.037 54.6739 84.037 60.0217C84.037 65.4703 82.9778 70.1118 80.8586 73.946C78.7396 77.6794 75.7631 80.5049 71.9288 82.4217C68.1955 84.3385 63.8064 85.2977 58.7613 85.2977H43.7775V35.0487ZM43.7775 35.0487V7.20007H60.2748C72.0802 7.20007 82.473 9.36943 91.453 13.7082C100.433 17.946 107.446 24.0001 112.491 31.8703C117.536 39.7406 120.059 49.1244 120.059 60.0217C120.059 71.0198 117.536 80.5049 112.491 88.4761C107.446 96.3457 100.433 102.45 91.453 106.789C82.473 111.027 72.0802 113.146 60.2748 113.146H8.05859V35.0487H43.7775Z" stroke="#FBBF24" stroke-width="13.6374"/>
</svg>
