<svg width="20" height="21" viewBox="0 0 20 21" fill="none" xmlns="http://www.w3.org/2000/svg">
<path fill-rule="evenodd" clip-rule="evenodd" d="M10 1.84668C7.51472 1.84668 5.5 3.8614 5.5 6.34668V9.84668H5C3.89543 9.84668 3 10.7421 3 11.8467V17.8467C3 18.9512 3.89543 19.8467 5 19.8467H15C16.1046 19.8467 17 18.9512 17 17.8467V11.8467C17 10.7421 16.1046 9.84668 15 9.84668H14.5V6.34668C14.5 3.8614 12.4853 1.84668 10 1.84668ZM13 9.84668V6.34668C13 4.68983 11.6569 3.34668 10 3.34668C8.34315 3.34668 7 4.68983 7 6.34668V9.84668H13Z" fill="#A1A1AA"/>
</svg>
